HIERARCHY
ROOT Hips
{
	OFFSET 0.000000 0.000000 0.000000 
	CHANNELS 6 Xposition Yposition Zposition Zrotation Yrotation Xrotation
	JOINT LeftUpLeg
	{
		OFFSET 1.363060 -1.794630 0.839290 
		CHANNELS 3 Zrotation Yrotation Xrotation
		JOINT LeftLeg
		{
			OFFSET 2.448110 -6.726130 0.000000 
			CHANNELS 3 Zrotation Yrotation Xrotation
			JOINT LeftFoot
			{
				OFFSET 2.562200 -7.039590 0.000000 
				CHANNELS 3 Zrotation Yrotation Xrotation
				JOINT LeftToeBase
				{
					OFFSET 0.157640 -0.433110 2.322550 
					CHANNELS 3 Zrotation Yrotation Xrotation
					End Site
					{
						OFFSET 0.000000 0.000000 0.000000 
					}
				}
			}
		}
	}
	JOINT RightUpLeg
	{
		OFFSET -1.305520 -1.794630 0.839290 
		CHANNELS 3 Zrotation Yrotation Xrotation
		JOINT RightLeg
		{
			OFFSET -2.542530 -6.985550 0.000000 
			CHANNELS 3 Zrotation Yrotation Xrotation
			JOINT RightFoot
			{
				OFFSET -2.568260 -7.056230 0.000000 
				CHANNELS 3 Zrotation Yrotation Xrotation
				JOINT RightToeBase
				{
					OFFSET -0.164730 -0.452590 2.363150 
					CHANNELS 3 Zrotation Yrotation Xrotation
					End Site
					{
						OFFSET 0.000000 0.000000 0.000000 
					}
				}
			}
		}
	}
	JOINT Spine
	{
		OFFSET 0.028270 2.035590 -0.193380 
		CHANNELS 3 Zrotation Yrotation Xrotation
		JOINT Spine1
		{
			OFFSET 0.056720 2.048850 -0.042750 
			CHANNELS 3 Zrotation Yrotation Xrotation
			JOINT Neck1
			{
				OFFSET -0.054170 1.746240 0.172020 
				CHANNELS 3 Zrotation Yrotation Xrotation
				JOINT Head
				{
					OFFSET 0.104070 1.761360 -0.123970 
					CHANNELS 3 Zrotation Yrotation Xrotation
					End Site
					{
						OFFSET 0.000000 0.000000 0.000000 
					}
				}
			}
			JOINT LeftArm
			{
				OFFSET 3.362410 1.200890 -0.311210 
				CHANNELS 3 Zrotation Yrotation Xrotation
				JOINT LeftForeArm
				{
					OFFSET 4.983000 -0.000000 -0.000000 
					CHANNELS 3 Zrotation Yrotation Xrotation
					JOINT LeftHand
					{
						OFFSET 3.483560 -0.000000 -0.000000 
						CHANNELS 3 Zrotation Yrotation Xrotation
						JOINT LeftHandIndex1
						{
							OFFSET 0.715260 -0.000000 -0.000000 
							CHANNELS 3 Zrotation Yrotation Xrotation
							End Site
							{
								OFFSET 0.000000 0.000000 0.000000 
							}
						}
					}
				}
			}
			JOINT RightArm
			{
				OFFSET -3.136600 1.374050 -0.404650 
				CHANNELS 3 Zrotation Yrotation Xrotation
				JOINT RightForeArm
				{
					OFFSET -5.241900 -0.000000 -0.000000 
					CHANNELS 3 Zrotation Yrotation Xrotation
					JOINT RightHand
					{
						OFFSET -3.444170 -0.000000 -0.000000 
						CHANNELS 3 Zrotation Yrotation Xrotation
						JOINT RightHandIndex1
						{
							OFFSET -0.622530 -0.000000 -0.000000 
							CHANNELS 3 Zrotation Yrotation Xrotation
							End Site
							{
								OFFSET 0.000000 0.000000 0.000000 
							}
						}
					}
				}
			}
		}
	}
}
MOTION
Frames: 16
Frame Time: 0.041667
-1.075321 18.216176 7.862869 -0.375567 -2.078723 10.292567 -9.765618 -13.916276 -17.364081 2.015352 10.516933 31.858668 0.067598 4.076439 -13.996807 8.051900 -16.157300 -52.749300 14.854393 5.777217 -14.787629 -0.932856 -7.135504 22.186484 -1.313973 2.817685 -11.875150 -0.000500 -0.147000 0.404000 -3.627064 0.713795 1.009391 -0.571028 1.017328 -5.445397 8.580008 -5.767708 24.543001 1.727100 -1.916700 8.366600 -91.311565 8.521283 23.708249 22.956766 -31.334040 -6.045382 0.718758 0.165366 8.978571 -7.125000 0.000000 0.000000 92.591855 -10.627943 24.421122 -29.043510 36.755705 -8.427353 1.013959 -2.842844 18.582785 7.125000 0.000000 0.000000 
-1.075917 18.215977 7.861777 -0.362338 -2.073434 10.262252 -9.791250 -13.953559 -17.323597 2.012195 10.509502 31.847414 0.055932 4.119303 -14.025351 8.051900 -16.157300 -52.749400 14.829945 5.780439 -14.777529 -0.936198 -7.140943 22.203877 -1.318745 2.833312 -11.892482 -0.000500 -0.145600 0.400000 -3.534930 0.720599 1.140721 -0.577664 1.018910 -5.452071 8.530274 -5.751676 24.528920 1.720600 -1.916900 8.362900 -91.326052 8.567971 23.793358 23.002499 -31.384263 -6.069063 0.720675 0.167516 8.935394 -7.125000 0.000000 0.000000 92.574856 -10.629953 24.395667 -29.048194 36.755547 -8.425623 1.014297 -2.841766 18.634731 7.125000 0.000000 0.000000 
-1.077209 18.215977 7.859491 -0.349780 -2.074326 10.267728 -9.803611 -13.941452 -17.329604 2.007082 10.505719 31.832461 0.033994 4.185531 -14.013836 8.074100 -16.173500 -52.829300 14.814916 5.826976 -14.781456 -0.939793 -7.150276 22.227315 -1.328499 2.865832 -11.926717 -0.001000 -0.208500 0.572800 -3.536406 0.717300 1.077776 -0.559356 1.019211 -5.443062 8.422559 -5.726713 24.497712 1.693300 -1.916300 8.346300 -91.320828 8.623547 23.835821 23.016032 -31.397107 -6.077929 0.722646 0.170692 8.832736 -7.125000 0.000000 0.000000 92.602926 -10.677640 24.354404 -29.046865 36.746616 -8.415511 1.005260 -2.840533 18.712308 7.125000 0.000000 0.000000 
-1.078997 18.216275 7.855517 -0.332321 -2.055857 10.269263 -9.801235 -13.891840 -17.378367 2.005890 10.503322 31.821399 0.030187 4.177028 -13.934517 8.082300 -16.179400 -52.858500 14.806007 5.872773 -14.792077 -0.942494 -7.156248 22.245943 -1.335090 2.874322 -11.982887 -0.001100 -0.214900 0.590400 -3.585509 0.701929 1.128284 -0.535169 1.014573 -5.461137 8.413771 -5.727955 24.465361 1.686900 -1.916900 8.340000 -91.293838 8.621103 23.869955 23.026632 -31.406916 -6.079854 0.720986 0.171502 8.777913 -7.125000 0.000000 0.000000 92.634826 -10.653308 24.315733 -29.025412 36.731925 -8.402447 0.995400 -2.840896 18.776293 7.125000 0.000000 0.000000 
-1.079991 18.216673 7.853033 -0.331908 -2.034510 10.280387 -9.791221 -13.860668 -17.428572 2.005951 10.500741 31.814193 0.026981 4.167950 -13.863293 8.079800 -16.177600 -52.849600 14.805973 5.873075 -14.829049 -0.944585 -7.160613 22.260079 -1.333480 2.861670 -11.993402 -0.000500 -0.143800 0.395100 -3.540767 0.684225 1.241718 -0.550501 1.003619 -5.468853 8.517137 -5.757675 24.533642 1.713600 -1.918700 8.372700 -91.299295 8.605757 23.859223 23.044609 -31.424029 -6.081042 0.716618 0.169925 8.790322 -7.125000 0.000000 0.000000 92.606575 -10.599633 24.360829 -28.998630 36.710989 -8.392690 0.993097 -2.841506 18.756819 7.125000 0.000000 0.000000 
-1.080289 18.216573 7.852238 -0.318126 -2.047991 10.283165 -9.806491 -13.871809 -17.430411 2.006311 10.499168 31.814257 0.029034 4.162162 -13.868055 8.067300 -16.168500 -52.804700 14.786716 5.828722 -14.868465 -0.946237 -7.162399 22.264285 -1.334715 2.892414 -11.935521 -0.000400 -0.131700 0.362000 -3.509241 0.682831 1.315295 -0.561625 1.001780 -5.467640 8.610070 -5.791152 24.645430 1.740500 -1.923100 8.416000 -91.321636 8.630961 23.878430 23.074748 -31.456609 -6.092383 0.714862 0.173481 8.716990 -7.125000 0.000000 0.000000 92.563690 -10.608380 24.452626 -29.020841 36.729013 -8.406354 0.996174 -2.840173 18.603339 7.125000 0.000000 0.000000 
-1.080587 18.216772 7.851742 -0.312959 -2.071796 10.254023 -9.821986 -13.908506 -17.386685 2.008101 10.498657 31.821797 0.039602 4.142820 -13.925535 8.053900 -16.158800 -52.756800 14.772724 5.800428 -14.862579 -0.946270 -7.160715 22.259268 -1.336484 2.911653 -11.910140 -0.000200 -0.096200 0.264200 -3.435067 0.689271 1.367542 -0.572282 1.003498 -5.463235 8.655382 -5.803495 24.627783 1.758300 -1.929300 8.411900 -91.351970 8.660269 23.903406 23.079597 -31.462406 -6.094009 0.714646 0.177938 8.650175 -7.125000 0.000000 0.000000 92.531767 -10.648641 24.510812 -29.058680 36.758304 -8.424651 1.004012 -2.838386 18.423938 7.125000 0.000000 0.000000 
-1.081382 18.216772 7.851146 -0.363129 -2.070900 10.218365 -9.795237 -13.897304 -17.364022 2.011158 10.499416 31.832589 0.038882 4.145919 -13.932116 8.061300 -16.164100 -52.783000 14.805678 5.804114 -14.824845 -0.944616 -7.156494 22.248574 -1.335102 2.895647 -11.931771 -0.000000 -0.024800 0.068000 -3.200854 0.687771 1.421134 -0.620400 0.995615 -5.459730 8.608228 -5.786829 24.593602 1.753500 -1.930400 8.397500 -91.395523 8.675573 23.881465 23.061840 -31.442032 -6.083844 0.713606 0.179588 8.680442 -7.125000 0.000000 0.000000 92.496699 -10.668010 24.530344 -29.062656 36.756747 -8.426189 1.011178 -2.838253 18.393086 7.125000 0.000000 0.000000 
-1.082276 18.216673 7.850549 -0.431471 -2.086633 10.198586 -9.749760 -13.856702 -17.368367 2.014295 10.500503 31.843431 0.029602 4.168128 -13.908568 8.062700 -16.165200 -52.788300 14.855291 5.818763 -14.806301 -0.942831 -7.150729 22.234914 -1.336229 2.900176 -11.936342 0.000000 -0.013700 0.037600 -2.959015 0.694782 1.534470 -0.687797 0.990280 -5.472094 8.610339 -5.792189 24.679088 1.759000 -1.931000 8.427500 -91.430383 8.651860 23.809727 23.017270 -31.397589 -6.064632 0.714033 0.177853 8.755448 -7.125000 0.000000 0.000000 92.494319 -10.671744 24.475730 -29.076899 36.771968 -8.438266 1.010427 -2.839130 18.471810 7.125000 0.000000 0.000000 
-1.082872 18.216871 7.850351 -0.463818 -2.135455 10.203306 -9.728053 -13.835407 -17.373995 2.016121 10.503392 31.853815 0.024957 4.187593 -13.926468 8.053200 -16.158200 -52.753900 14.877164 5.861172 -14.804591 -0.940698 -7.146053 22.221767 -1.336051 2.907447 -11.919523 0.000000 -0.027800 0.076300 -2.890719 0.712459 1.574617 -0.727496 0.994864 -5.463325 8.659988 -5.820430 24.766925 1.772300 -1.937500 8.457300 -91.449008 8.636426 23.710004 22.963586 -31.344880 -6.044704 0.716960 0.173405 8.832063 -7.125000 0.000000 0.000000 92.531791 -10.683695 24.363273 -29.096621 36.789849 -8.449663 1.005060 -2.839456 18.578747 7.125000 0.000000 0.000000 
-1.083468 18.216673 7.850053 -0.480969 -2.179200 10.202927 -9.717477 -13.814993 -17.378247 2.018877 10.506947 31.865762 0.030684 4.175808 -13.950296 8.043900 -16.151400 -52.720600 14.886468 5.896709 -14.798143 -0.938615 -7.141438 22.208542 -1.332405 2.906983 -11.880763 -0.000100 -0.055600 0.152900 -2.854511 0.717460 1.580985 -0.732137 0.995944 -5.439218 8.567443 -5.815925 24.747519 1.745900 -1.944200 8.448000 -91.466323 8.635684 23.626292 22.930324 -31.309170 -6.033742 0.720005 0.171360 8.884017 -7.125000 0.000000 0.000000 92.535936 -10.678677 24.322081 -29.092577 36.781656 -8.442136 1.012232 -2.839371 18.645873 7.125000 0.000000 0.000000 
-1.084263 18.216573 7.850152 -0.520722 -2.228015 10.196119 -9.694183 -13.783947 -17.381369 2.021643 10.508547 31.877009 0.030050 4.181437 -13.965896 8.032600 -16.143100 -52.679900 14.911085 5.890989 -14.809644 -0.937748 -7.138102 22.199228 -1.331535 2.927650 -11.823502 -0.000200 -0.081700 0.224400 -2.711989 0.720114 1.653433 -0.746085 0.993823 -5.408312 8.413689 -5.783668 24.633894 1.705200 -1.946600 8.414100 -91.492410 8.610280 23.554380 22.907821 -31.281618 -6.023934 0.720837 0.172179 8.921923 -7.125000 0.000000 0.000000 92.506032 -10.650814 24.336028 -29.068806 36.756946 -8.426470 1.022234 -2.839899 18.644309 7.125000 0.000000 0.000000 
-1.084462 18.216871 7.850251 -0.574943 -2.266410 10.200562 -9.658405 -13.755838 -17.379412 2.022393 10.510771 31.883243 0.022823 4.207228 -13.976293 8.028600 -16.140200 -52.665600 14.953821 5.894895 -14.815657 -0.937453 -7.138658 22.198470 -1.330912 2.935740 -11.798557 -0.000100 -0.074200 0.203800 -2.573435 0.727252 1.594404 -0.797382 0.990687 -5.374759 8.455470 -5.784046 24.554346 1.717900 -1.947300 8.390500 -91.508778 8.622362 23.489469 22.896693 -31.267952 -6.018171 0.720523 0.170728 8.962482 -7.125000 0.000000 0.000000 92.507609 -10.658215 24.299004 -29.057385 36.745060 -8.425037 1.025171 -2.841504 18.611924 7.125000 0.000000 0.000000 
-1.084263 18.216971 7.849556 -0.597970 -2.289419 10.209142 -9.651502 -13.709350 -17.389314 2.023373 10.513340 31.887418 0.023124 4.199891 -13.949908 8.031900 -16.142700 -52.677500 14.966971 5.919873 -14.811705 -0.936817 -7.141184 22.200650 -1.325547 2.911858 -11.792028 -0.000100 -0.049400 0.135700 -2.462636 0.733444 1.461985 -0.845101 0.988643 -5.359545 8.687184 -5.831120 24.564684 1.783100 -1.951500 8.397500 -91.524902 8.649078 23.442055 22.894524 -31.266389 -6.017214 0.720146 0.166248 8.989728 -7.125000 0.000000 0.000000 92.505201 -10.686575 24.266838 -29.063561 36.748629 -8.434668 1.028928 -2.842437 18.549869 7.125000 0.000000 0.000000 
-1.084164 18.216474 7.849158 -0.592394 -2.313655 10.196171 -9.670068 -13.648318 -17.395331 2.024690 10.514293 31.890918 0.025153 4.184814 -13.915095 8.035500 -16.145300 -52.690600 14.953363 5.935785 -14.797090 -0.937011 -7.142187 22.202340 -1.323563 2.906408 -11.780531 -0.000100 -0.064700 0.177700 -2.410347 0.746802 1.436942 -0.864837 0.993820 -5.364525 8.842173 -5.886328 24.578938 1.825700 -1.965900 8.409500 -91.534002 8.656886 23.471562 22.906976 -31.280690 -6.020344 0.718200 0.166331 8.946301 -7.125000 0.000000 0.000000 92.490685 -10.691434 24.270482 -29.050602 36.732494 -8.426579 1.035317 -2.842112 18.503830 7.125000 0.000000 0.000000 
-1.083866 18.216076 7.849655 -0.595288 -2.339118 10.171005 -9.671305 -13.656390 -17.359788 2.024710 10.513635 31.891842 0.032312 4.174467 -13.962745 8.030700 -16.141800 -52.673300 14.955040 5.920525 -14.782511 -0.938457 -7.142817 22.206224 -1.327255 2.936769 -11.753200 -0.000100 -0.077500 0.212900 -2.424950 0.766252 1.458469 -0.874224 1.002948 -5.360891 8.854484 -5.913637 24.518452 1.825200 -1.980500 8.394000 -91.517631 8.668374 23.543125 22.930291 -31.304491 -6.027242 0.716125 0.169161 8.869711 -7.125000 0.000000 0.000000 92.498719 -10.690384 24.247791 -29.039452 36.718653 -8.415908 1.045464 -2.841904 18.508980 7.125000 0.000000 0.000000 
